<mxfile host="app.diagrams.net" modified="2022-02-10T15:56:04.533Z" agent="5.0 (Windows)" etag="ScQrb7h8tZrrYOdJpW25" version="16.5.4" type="github">
  <diagram id="ZbN3SIYdwVLS3I_vgF8O" name="Page-1">
    <mxGraphModel dx="1042" dy="536" grid="1" gridSize="10" guides="1" tooltips="1" connect="1" arrows="1" fold="1" page="1" pageScale="1" pageWidth="827" pageHeight="1169" math="0" shadow="0">
      <root>
        <mxCell id="0" />
        <mxCell id="1" parent="0" />
        <mxCell id="XlwFv0oscxkEeIsIY-Ll-1" value="FRONT-END" style="html=1;dashed=1;whitespace=wrap;labelPosition=left;verticalLabelPosition=top;align=right;verticalAlign=bottom;rounded=1;sketch=0;" vertex="1" parent="1">
          <mxGeometry x="90" y="70" width="710" height="240" as="geometry" />
        </mxCell>
        <mxCell id="XlwFv0oscxkEeIsIY-Ll-12" value="" style="edgeStyle=orthogonalEdgeStyle;rounded=0;orthogonalLoop=1;jettySize=auto;html=1;labelBackgroundColor=none;fontColor=#000000;" edge="1" parent="1" source="XlwFv0oscxkEeIsIY-Ll-3" target="XlwFv0oscxkEeIsIY-Ll-10">
          <mxGeometry relative="1" as="geometry" />
        </mxCell>
        <mxCell id="XlwFv0oscxkEeIsIY-Ll-3" value="" style="sketch=0;outlineConnect=0;dashed=0;verticalLabelPosition=bottom;verticalAlign=top;align=center;html=1;fontSize=12;fontStyle=0;aspect=fixed;shape=mxgraph.aws4.resourceIcon;resIcon=mxgraph.aws4.queue;rounded=1;rotation=90;fontColor=#FF9933;gradientColor=none;" vertex="1" parent="1">
          <mxGeometry x="510" y="500" width="40" height="40" as="geometry" />
        </mxCell>
        <mxCell id="XlwFv0oscxkEeIsIY-Ll-4" value="" style="shape=image;html=1;verticalAlign=top;verticalLabelPosition=bottom;labelBackgroundColor=#ffffff;imageAspect=0;aspect=fixed;image=https://cdn3.iconfinder.com/data/icons/snowish/128x128/apps/bonobo-component-browser.png;rounded=1;dashed=1;sketch=0;" vertex="1" parent="1">
          <mxGeometry x="650" y="10" width="40" height="40" as="geometry" />
        </mxCell>
        <mxCell id="XlwFv0oscxkEeIsIY-Ll-5" value="file archive" style="aspect=fixed;perimeter=ellipsePerimeter;html=1;align=center;shadow=0;dashed=0;spacingTop=3;image;image=img/lib/active_directory/folder.svg;rounded=1;sketch=0;" vertex="1" parent="1">
          <mxGeometry x="230" y="380" width="36.5" height="50" as="geometry" />
        </mxCell>
        <mxCell id="XlwFv0oscxkEeIsIY-Ll-6" value="&lt;div&gt;metadata-db&lt;/div&gt;&lt;div&gt;&lt;br&gt;&lt;/div&gt;" style="aspect=fixed;perimeter=ellipsePerimeter;html=1;align=center;shadow=0;dashed=0;spacingTop=3;image;image=img/lib/active_directory/database.svg;rounded=1;sketch=0;" vertex="1" parent="1">
          <mxGeometry x="230" y="470" width="50" height="37" as="geometry" />
        </mxCell>
        <mxCell id="XlwFv0oscxkEeIsIY-Ll-8" value="admin-db" style="aspect=fixed;perimeter=ellipsePerimeter;html=1;align=center;shadow=0;dashed=0;spacingTop=3;image;image=img/lib/active_directory/database.svg;rounded=1;sketch=0;" vertex="1" parent="1">
          <mxGeometry x="230" y="566" width="50" height="37" as="geometry" />
        </mxCell>
        <mxCell id="XlwFv0oscxkEeIsIY-Ll-11" value="&lt;div&gt;&lt;font color=&quot;#000000&quot;&gt;doi_metadata&lt;/font&gt;&lt;/div&gt;&lt;div&gt;&lt;font color=&quot;#000000&quot;&gt;citations_metadata&lt;br&gt;&lt;/font&gt;&lt;/div&gt;" style="edgeStyle=orthogonalEdgeStyle;rounded=0;orthogonalLoop=1;jettySize=auto;html=1;fontColor=#FF9933;labelBackgroundColor=none;" edge="1" parent="1" source="XlwFv0oscxkEeIsIY-Ll-9" target="XlwFv0oscxkEeIsIY-Ll-3">
          <mxGeometry relative="1" as="geometry">
            <mxPoint x="530" y="510" as="targetPoint" />
          </mxGeometry>
        </mxCell>
        <mxCell id="XlwFv0oscxkEeIsIY-Ll-13" style="edgeStyle=orthogonalEdgeStyle;rounded=0;orthogonalLoop=1;jettySize=auto;html=1;labelBackgroundColor=none;fontColor=#000000;" edge="1" parent="1" source="XlwFv0oscxkEeIsIY-Ll-9" target="XlwFv0oscxkEeIsIY-Ll-5">
          <mxGeometry relative="1" as="geometry" />
        </mxCell>
        <mxCell id="XlwFv0oscxkEeIsIY-Ll-14" value="&lt;div&gt;&amp;lt;doi_metadata&amp;gt;.xml&lt;/div&gt;&lt;div&gt;&amp;lt;citations_metadata&amp;gt;.xml&lt;br&gt;&lt;/div&gt;" style="edgeLabel;html=1;align=center;verticalAlign=middle;resizable=0;points=[];fontColor=#000000;" vertex="1" connectable="0" parent="XlwFv0oscxkEeIsIY-Ll-13">
          <mxGeometry x="-0.2763" y="-2" relative="1" as="geometry">
            <mxPoint as="offset" />
          </mxGeometry>
        </mxCell>
        <mxCell id="XlwFv0oscxkEeIsIY-Ll-15" style="rounded=0;orthogonalLoop=1;jettySize=auto;html=1;entryX=1;entryY=0.5;entryDx=0;entryDy=0;labelBackgroundColor=none;fontColor=#000000;" edge="1" parent="1" source="XlwFv0oscxkEeIsIY-Ll-9" target="XlwFv0oscxkEeIsIY-Ll-6">
          <mxGeometry relative="1" as="geometry" />
        </mxCell>
        <mxCell id="XlwFv0oscxkEeIsIY-Ll-16" value="&lt;div&gt;doi_metadata&lt;/div&gt;&lt;div&gt;citations_metadata&lt;br&gt;&lt;/div&gt;" style="edgeLabel;html=1;align=center;verticalAlign=middle;resizable=0;points=[];fontColor=#000000;" vertex="1" connectable="0" parent="XlwFv0oscxkEeIsIY-Ll-15">
          <mxGeometry x="0.4827" y="4" relative="1" as="geometry">
            <mxPoint x="1" as="offset" />
          </mxGeometry>
        </mxCell>
        <mxCell id="XlwFv0oscxkEeIsIY-Ll-17" style="rounded=0;orthogonalLoop=1;jettySize=auto;html=1;entryX=1;entryY=0.5;entryDx=0;entryDy=0;labelBackgroundColor=none;fontColor=#000000;" edge="1" parent="1" source="XlwFv0oscxkEeIsIY-Ll-9" target="XlwFv0oscxkEeIsIY-Ll-8">
          <mxGeometry relative="1" as="geometry" />
        </mxCell>
        <mxCell id="XlwFv0oscxkEeIsIY-Ll-18" value="&lt;div&gt;doi_accounting&lt;/div&gt;&lt;div&gt;citations_accounting&lt;br&gt;&lt;/div&gt;" style="edgeLabel;html=1;align=center;verticalAlign=middle;resizable=0;points=[];fontColor=#000000;" vertex="1" connectable="0" parent="XlwFv0oscxkEeIsIY-Ll-17">
          <mxGeometry x="0.498" y="-1" relative="1" as="geometry">
            <mxPoint x="1" as="offset" />
          </mxGeometry>
        </mxCell>
        <mxCell id="XlwFv0oscxkEeIsIY-Ll-9" value="DOI Manager" style="label;whiteSpace=wrap;html=1;align=center;verticalAlign=bottom;spacingLeft=0;spacingBottom=4;imageAlign=center;imageVerticalAlign=top;image=img/clipart/Gear_128x128.png;rounded=1;dashed=1;sketch=0;" vertex="1" parent="1">
          <mxGeometry x="470" y="364" width="120" height="80" as="geometry" />
        </mxCell>
        <mxCell id="XlwFv0oscxkEeIsIY-Ll-10" value="Engine" style="label;whiteSpace=wrap;html=1;align=center;verticalAlign=bottom;spacingLeft=0;spacingBottom=4;imageAlign=center;imageVerticalAlign=top;image=img/clipart/Gear_128x128.png;rounded=1;dashed=1;sketch=0;" vertex="1" parent="1">
          <mxGeometry x="470" y="566" width="120" height="80" as="geometry" />
        </mxCell>
      </root>
    </mxGraphModel>
  </diagram>
</mxfile>
